<svg width="408" height="109" viewBox="0 0 408 109" fill="none" xmlns="http://www.w3.org/2000/svg">
<path d="M89.8038 14.2169C89.8456 14.3002 89.9291 14.5084 90.0543 14.8417C90.1796 15.1332 90.3048 15.4873 90.4301 15.9038C90.5553 16.2787 90.6597 16.6744 90.7432 17.091C90.8685 17.4659 90.9311 17.7366 90.9311 17.9032C90.9311 19.3195 90.6388 21.0273 90.0543 23.0266C89.4698 24.9844 88.6557 27.0671 87.612 29.2747C86.61 31.4824 85.4201 33.7317 84.0424 36.0226C82.6646 38.3136 81.2034 40.5004 79.6586 42.5831C78.1139 44.6242 76.5065 46.4986 74.8365 48.2064C73.2083 49.8725 71.6009 51.2055 70.0144 52.2052C69.4299 51.6637 68.7202 51.018 67.8852 50.2683C67.0919 49.5185 66.2361 48.7271 65.3176 47.894C64.3991 47.0193 63.4806 46.1445 62.5621 45.2698C61.6436 44.3951 60.7877 43.5412 59.9945 42.7081C61.2052 41.75 62.5621 40.5004 64.0651 38.9592C65.6098 37.3764 67.1546 35.6269 68.6993 33.7109C70.2858 31.7948 71.8305 29.8162 73.3335 27.7752C74.8365 25.7341 76.1308 23.7764 77.2163 21.902C78.3435 19.9859 79.2203 18.2573 79.8465 16.7161C80.4728 15.1749 80.7024 13.9461 80.5354 13.0297C80.4101 12.5715 80.2014 12.2591 79.9091 12.0925C79.6586 11.8842 79.1785 11.7801 78.4688 11.7801C75.922 11.7801 72.9787 12.28 69.6387 13.2796C66.2987 14.2793 62.8126 15.7372 59.1804 17.6533C55.5481 19.5277 51.8741 21.8395 48.1584 24.5887C44.4844 27.3378 41.0192 30.441 37.7627 33.8983C34.548 37.3556 31.6672 41.1461 29.1205 45.2698C26.6155 49.3935 24.695 53.788 23.359 58.4532C26.2815 58.4116 29.0579 58.3074 31.6881 58.1408C34.3183 57.9326 36.8233 57.7243 39.2031 57.516C41.5828 57.3078 43.8582 57.1203 46.0292 56.9537C48.2002 56.7871 50.3085 56.7038 52.3543 56.7038C53.4398 56.7038 54.6088 57.2869 55.8612 58.4532C57.1137 59.6195 58.2827 61.0149 59.3682 62.6394C60.4537 64.2639 61.3513 65.9301 62.0611 67.6379C62.7708 69.3457 63.1257 70.7203 63.1257 71.7616C63.1257 74.7191 62.3533 77.6973 60.8086 80.6964C59.3056 83.6538 57.2599 86.5279 54.6714 89.3187C52.1246 92.0679 49.1604 94.6504 45.7787 97.0663C42.3969 99.4406 38.8273 101.502 35.0698 103.252C31.3541 105.043 27.5549 106.438 23.6721 107.438C19.7894 108.479 16.0946 109 12.5876 109C12.1283 108.625 11.5229 108.042 10.7715 107.251C10.02 106.501 9.20583 105.647 8.32909 104.689C7.49409 103.773 6.61734 102.794 5.69885 101.752C4.8221 100.711 4.00798 99.7114 3.25649 98.7533C2.46324 97.7953 1.77437 96.9206 1.18987 96.1291C0.605372 95.3377 0.208749 94.7337 0 94.3172C2.29624 94.6504 5.05173 94.7337 8.26646 94.5671C11.5229 94.4005 14.9464 93.9423 18.5369 93.1925C22.1274 92.4428 25.7388 91.3806 29.371 90.006C33.045 88.5898 36.4685 86.8195 39.6414 84.6952C42.8144 82.5708 45.6117 80.0507 48.0332 77.135C50.4546 74.1776 52.2081 70.7619 53.2936 66.8881C50.8721 66.9298 48.6803 67.0548 46.718 67.263C44.7558 67.4296 42.8562 67.6379 41.0192 67.8878C39.1822 68.0961 37.3035 68.2835 35.383 68.4502C33.4625 68.6168 31.3332 68.7001 28.9952 68.7001C28.2437 68.7001 27.4296 68.7001 26.5529 68.7001C25.6761 68.6584 24.7994 68.5959 23.9226 68.5126C23.0459 68.3877 22.2109 68.2002 21.4177 67.9503C20.6244 67.7004 19.9773 67.3463 19.4763 66.8881C18.349 65.9301 17.2635 64.9304 16.2198 63.8891C15.1761 62.8061 14.2367 61.7231 13.4017 60.6401C12.5667 59.5154 11.8987 58.3908 11.3977 57.2661C10.8967 56.1414 10.6462 55.0584 10.6462 54.0171C10.6462 50.8514 11.4394 47.3317 13.0259 43.4579C14.6124 39.5424 16.8043 35.6061 19.6015 31.649C22.4405 27.6919 25.7805 23.8597 29.6215 20.1525C33.4625 16.4037 37.6375 13.0714 42.1464 10.1556C46.6972 7.23984 51.4775 4.90722 56.4875 3.15776C61.4975 1.4083 66.5701 0.533569 71.7053 0.533569C73.5005 0.533569 75.1288 0.804319 76.59 1.34582C78.093 1.88732 79.4499 2.59543 80.6606 3.47017C81.8714 4.3449 82.9569 5.32376 83.9171 6.40676C84.8774 7.44811 85.7332 8.46863 86.4847 9.46832C87.2362 10.468 87.8834 11.4052 88.4261 12.28C88.9688 13.113 89.4281 13.7587 89.8038 14.2169Z" fill="#DE4343"/>
<path d="M118.298 82.3834C114.457 86.1322 110.825 89.2771 107.401 91.818C104.02 94.3588 100.784 96.3999 97.6946 97.9411C94.6051 99.4823 91.6408 100.586 88.8018 101.253C86.0046 101.919 83.27 102.252 80.598 102.252C79.4708 102.252 78.2183 101.836 76.8405 101.003C75.4628 100.17 74.1894 99.149 73.0204 97.9411C71.8097 96.7748 70.8077 95.546 70.0144 94.2547C69.2212 92.9634 68.8246 91.8596 68.8246 90.9432C68.8246 87.5276 69.3047 84.4036 70.2649 81.5711C71.1834 78.697 72.415 76.1145 73.9598 73.8235C75.5045 71.5325 77.258 69.5123 79.2203 67.7629C81.2243 66.0134 83.2909 64.5555 85.4201 63.3892C87.5911 62.2229 89.7412 61.3482 91.8705 60.765C93.9997 60.1819 95.9619 59.8903 97.7572 59.8903C99.0514 59.8903 100.325 60.2652 101.577 61.0149C102.872 61.7647 104.041 62.6811 105.084 63.7641C106.128 64.8471 106.963 65.9926 107.589 67.2005C108.257 68.3668 108.591 69.3874 108.591 70.2621C108.591 71.6783 107.986 73.1362 106.775 74.6357C105.606 76.0936 103.936 77.5932 101.765 79.1344C99.5942 80.6756 96.9848 82.2584 93.9371 83.8829C90.8893 85.4657 87.5285 87.0694 83.8545 88.6939C83.7292 89.6936 83.6666 90.6725 83.6666 91.6305C83.6666 92.9218 83.938 93.7965 84.4807 94.2547C85.0652 94.7129 86.1299 94.942 87.6746 94.942C90.4301 94.942 93.0186 94.4838 95.4401 93.5674C97.9033 92.651 100.262 91.4639 102.517 90.006C104.771 88.5481 106.942 86.882 109.03 85.0076C111.117 83.1331 113.184 81.2379 115.229 79.3218L118.298 82.3834ZM96.2542 66.7632C95.4192 66.7632 94.5007 67.2214 93.4987 68.1378C92.4967 69.0125 91.4947 70.1788 90.4927 71.6367C89.4907 73.0946 88.5305 74.7815 87.612 76.6976C86.6935 78.572 85.9002 80.5298 85.2322 82.5708C86.777 81.5711 88.28 80.5089 89.7412 79.3843C91.2442 78.2596 92.5802 77.0933 93.7492 75.8854C94.9182 74.6357 95.8576 73.3653 96.5673 72.074C97.2771 70.7828 97.6319 69.4915 97.6319 68.2002C97.6319 67.8253 97.5067 67.4921 97.2562 67.2005C97.0474 66.909 96.7134 66.7632 96.2542 66.7632Z" fill="#DE4343"/>
<path d="M144.538 91.2556C142.784 91.2556 141.26 90.9641 139.966 90.3809C138.588 91.8388 137.148 93.2134 135.645 94.5046C134.142 95.7542 132.66 96.8581 131.199 97.8161C129.738 98.8158 128.297 99.6072 126.878 100.19C125.458 100.774 124.122 101.107 122.87 101.19C122.243 101.19 121.325 100.919 120.114 100.378C118.945 99.8363 117.797 99.1282 116.67 98.2535C115.501 97.4204 114.499 96.4624 113.664 95.3794C112.787 94.2547 112.349 93.1301 112.349 92.0054C112.349 89.2562 112.62 86.5071 113.163 83.7579C113.706 80.9671 114.394 78.218 115.229 75.5105C116.023 72.803 116.92 70.158 117.922 67.5754C118.883 64.9512 119.801 62.4312 120.678 60.0153C122.807 60.9733 124.874 62.0355 126.878 63.2018C128.923 64.3681 130.823 65.7427 132.577 67.3255C131.95 68.5751 131.324 70.0122 130.698 71.6367C130.072 73.2612 129.466 74.9482 128.882 76.6976C128.297 78.4471 127.754 80.1965 127.253 81.946C126.752 83.6955 126.314 85.32 125.938 86.8195C125.563 88.319 125.27 89.652 125.062 90.8183C124.853 91.9429 124.748 92.7552 124.748 93.255C124.748 93.5882 124.811 93.9007 124.936 94.1922C125.103 94.4421 125.354 94.5671 125.688 94.5671C126.356 94.5671 127.086 94.3588 127.88 93.9423C128.715 93.5258 129.591 92.9843 130.51 92.3178C131.428 91.6097 132.347 90.7974 133.265 89.8811C134.226 88.923 135.144 87.9233 136.021 86.882C135.269 85.5907 134.894 84.2994 134.894 83.0082C134.894 82.1334 135.019 81.0921 135.269 79.8841C135.562 78.6345 135.937 77.3432 136.397 76.0103C136.856 74.6774 137.357 73.3445 137.9 72.0116C138.484 70.637 139.069 69.3665 139.653 68.2002C140.279 67.0339 140.864 66.0134 141.407 65.1387C141.991 64.2639 142.513 63.6183 142.972 63.2018C143.932 63.5767 144.934 64.0973 145.978 64.7638C147.022 65.3886 147.982 66.0759 148.859 66.8257C149.736 67.5338 150.445 68.2419 150.988 68.95C151.573 69.6165 151.907 70.1788 151.99 70.637C151.99 71.5117 151.781 72.5322 151.364 73.6985C150.946 74.8648 150.362 76.1353 149.61 77.5099C148.901 78.8428 148.024 80.259 146.98 81.7586C145.978 83.2164 144.872 84.6952 143.661 86.1947C143.912 86.278 144.162 86.3613 144.413 86.4446C144.705 86.4863 145.039 86.5071 145.415 86.5071C147.085 86.5071 148.567 86.3405 149.861 86.0072C151.155 85.674 152.387 85.195 153.556 84.5702C154.725 83.9037 155.873 83.0915 157 82.1334C158.127 81.1754 159.359 80.0716 160.695 78.822C161.071 79.1968 161.551 79.6967 162.135 80.3215C162.762 80.9047 163.263 81.4253 163.638 81.8835C161.885 83.633 160.215 85.1117 158.628 86.3197C157.084 87.486 155.539 88.444 153.994 89.1938C152.491 89.9019 150.967 90.4226 149.423 90.7558C147.878 91.089 146.25 91.2556 144.538 91.2556Z" fill="#DE4343"/>
<path d="M203.468 82.3834C199.627 86.1322 195.994 89.2771 192.571 91.818C189.189 94.3588 185.954 96.3999 182.864 97.9411C179.775 99.4823 176.81 100.586 173.971 101.253C171.174 101.919 168.44 102.252 165.768 102.252C164.64 102.252 163.388 101.836 162.01 101.003C160.632 100.17 159.359 99.149 158.19 97.9411C156.979 96.7748 155.977 95.546 155.184 94.2547C154.391 92.9634 153.994 91.8596 153.994 90.9432C153.994 87.5276 154.474 84.4036 155.435 81.5711C156.353 78.697 157.585 76.1145 159.129 73.8235C160.674 71.5325 162.428 69.5123 164.39 67.7629C166.394 66.0134 168.46 64.5555 170.59 63.3892C172.761 62.2229 174.911 61.3482 177.04 60.765C179.169 60.1819 181.132 59.8903 182.927 59.8903C184.221 59.8903 185.494 60.2652 186.747 61.0149C188.041 61.7647 189.21 62.6811 190.254 63.7641C191.298 64.8471 192.133 65.9926 192.759 67.2005C193.427 68.3668 193.761 69.3874 193.761 70.2621C193.761 71.6783 193.155 73.1362 191.945 74.6357C190.776 76.0936 189.106 77.5932 186.935 79.1344C184.764 80.6756 182.154 82.2584 179.107 83.8829C176.059 85.4657 172.698 87.0694 169.024 88.6939C168.899 89.6936 168.836 90.6725 168.836 91.6305C168.836 92.9218 169.108 93.7965 169.65 94.2547C170.235 94.7129 171.299 94.942 172.844 94.942C175.6 94.942 178.188 94.4838 180.61 93.5674C183.073 92.651 185.432 91.4639 187.686 90.006C189.941 88.5481 192.112 86.882 194.199 85.0076C196.287 83.1331 198.353 81.2379 200.399 79.3218L203.468 82.3834ZM181.424 66.7632C180.589 66.7632 179.67 67.2214 178.668 68.1378C177.666 69.0125 176.664 70.1788 175.662 71.6367C174.66 73.0946 173.7 74.7815 172.782 76.6976C171.863 78.572 171.07 80.5298 170.402 82.5708C171.947 81.5711 173.45 80.5089 174.911 79.3843C176.414 78.2596 177.75 77.0933 178.919 75.8854C180.088 74.6357 181.027 73.3653 181.737 72.074C182.447 70.7828 182.802 69.4915 182.802 68.2002C182.802 67.8253 182.676 67.4921 182.426 67.2005C182.217 66.909 181.883 66.7632 181.424 66.7632Z" fill="#DE4343"/>
<path d="M228.831 71.8866C228.288 73.5111 227.599 75.3647 226.764 77.4474C225.971 79.5301 225.198 81.5711 224.447 83.5705C223.695 85.5699 223.048 87.3818 222.506 89.0063C222.005 90.6308 221.754 91.7971 221.754 92.5052C221.754 92.7552 221.879 92.8801 222.13 92.8801C222.589 92.8801 223.278 92.6094 224.196 92.0679C225.115 91.5264 226.159 90.8183 227.328 89.9435C228.538 89.0688 229.791 88.1108 231.085 87.0694C232.379 86.0281 233.611 85.0076 234.78 84.0079C235.991 82.9665 237.076 82.0293 238.037 81.1962C238.997 80.3632 239.727 79.7383 240.228 79.3218C240.604 79.6967 241.043 80.1757 241.544 80.7589C242.086 81.342 242.587 81.8835 243.047 82.3834C242.128 83.2997 240.98 84.4244 239.602 85.7573C238.224 87.0486 236.721 88.3815 235.093 89.7561C233.507 91.1307 231.837 92.5052 230.083 93.8798C228.371 95.2544 226.681 96.4832 225.011 97.5662C223.382 98.6492 221.858 99.5239 220.439 100.19C219.02 100.857 217.83 101.19 216.869 101.19C216.243 101.19 215.45 100.961 214.49 100.503C213.529 100.086 212.611 99.5447 211.734 98.8783C210.857 98.2535 210.106 97.5454 209.48 96.7539C208.853 95.9625 208.54 95.1919 208.54 94.4421C209.167 91.6513 209.793 89.2146 210.419 87.1319C211.045 85.0492 211.63 83.2789 212.173 81.821C212.715 80.3215 213.195 79.1135 213.613 78.1972C214.03 77.2808 214.344 76.5935 214.552 76.1353C214.051 75.927 213.571 75.6979 213.112 75.448C212.653 75.1981 212.193 74.9482 211.734 74.6982C211.066 75.4063 210.315 76.1561 209.48 76.9475C208.686 77.739 207.872 78.5304 207.037 79.3218C206.202 80.1132 205.367 80.8838 204.532 81.6336C203.697 82.3834 202.946 83.0707 202.278 83.6955L199.272 80.6339C200.357 79.5926 201.672 78.3429 203.217 76.8851C204.72 75.3855 206.202 73.886 207.664 72.3864C206.62 71.7616 205.68 71.1785 204.845 70.637C204.01 70.0538 203.301 69.5332 202.716 69.075C202.006 68.5751 201.38 68.1169 200.837 67.7004C200.587 67.5754 200.462 67.3047 200.462 66.8881C200.462 66.4299 200.65 65.7843 201.025 64.9512C201.359 64.0765 201.798 63.1601 202.34 62.2021C202.883 61.2024 203.468 60.2027 204.094 59.203C204.72 58.1617 205.326 57.2244 205.91 56.3914C206.495 55.5583 206.996 54.8918 207.413 54.392C207.872 53.8505 208.165 53.5797 208.29 53.5797C208.373 53.5797 208.645 53.6839 209.104 53.8921C209.605 54.1004 210.127 54.3503 210.67 54.6419C211.212 54.8918 211.713 55.1834 212.173 55.5166C212.632 55.8499 212.924 56.1414 213.049 56.3914C213.091 56.5996 213.133 57.037 213.175 57.7035C213.216 58.3699 213.258 59.1822 213.3 60.1402C214.928 60.9733 216.598 61.9313 218.31 63.0143C220.021 64.0557 221.587 65.0554 223.007 66.0134C224.677 67.0964 226.263 68.2002 227.766 69.3249C228.309 69.6581 228.643 70.0747 228.768 70.5745C228.935 71.0743 228.956 71.5117 228.831 71.8866Z" fill="#DE4343"/>
<path d="M238.976 80.5089C239.936 79.5926 241.043 78.5512 242.295 77.3849C243.506 76.2186 244.717 74.9482 245.927 73.5736C247.18 72.199 248.328 70.7203 249.372 69.1374C250.457 67.5546 251.313 65.8468 251.939 64.014C252.106 63.056 252.357 62.0563 252.691 61.0149C253.066 59.9319 253.463 58.9531 253.881 58.0783C254.34 57.2036 254.778 56.4747 255.196 55.8915C255.613 55.3084 255.989 55.0168 256.323 55.0168C256.824 55.3084 257.575 55.8707 258.577 56.7038C259.579 57.4952 260.581 58.3491 261.583 59.2655C262.585 60.1819 263.462 61.0358 264.214 61.8272C265.007 62.577 265.404 63.0352 265.404 63.2018C264.903 65.1178 264.652 66.8465 264.652 68.3877C264.694 69.9289 264.819 71.4492 265.028 72.9488C265.278 74.4483 265.529 76.052 265.779 77.7598C266.072 79.4259 266.218 81.3628 266.218 83.5705C266.218 84.9034 265.988 86.4446 265.529 88.1941C265.111 89.9019 264.36 91.4431 263.274 92.8177C265.404 91.568 267.512 90.1726 269.599 88.6314C271.687 87.0486 273.545 85.5699 275.173 84.1953C277.093 82.5708 278.93 80.9463 280.684 79.3218L283.502 82.3834C282.124 83.6746 280.621 85.0492 278.993 86.5071C277.407 87.965 275.737 89.402 273.983 90.8183C272.271 92.2345 270.518 93.5882 268.723 94.8795C266.927 96.1708 265.153 97.3163 263.4 98.316C261.646 99.3156 259.955 100.107 258.327 100.69C256.699 101.273 255.175 101.565 253.755 101.565C252.545 101.565 251.209 101.273 249.747 100.69C248.286 100.107 246.908 99.399 245.614 98.5659C244.32 97.7328 243.193 96.8581 242.232 95.9417C241.272 95.0253 240.709 94.2547 240.542 93.6299C240.542 93.5466 240.625 93.38 240.792 93.1301C240.959 92.8385 241.168 92.5469 241.418 92.2553C241.627 91.9637 241.857 91.7138 242.107 91.5056C242.316 91.2556 242.483 91.1307 242.608 91.1307C242.859 91.1307 243.36 91.3181 244.111 91.693C244.863 92.0679 246.115 92.2553 247.869 92.2553C248.829 92.2553 249.643 92.0054 250.311 91.5056C251.021 91.0057 251.605 90.3392 252.064 89.5062C252.524 88.6731 252.858 87.7151 253.066 86.6321C253.275 85.5491 253.38 84.4036 253.38 83.1956C253.38 81.4462 253.296 79.7592 253.129 78.1347C252.962 76.4685 252.774 74.8648 252.565 73.3237C251.856 74.1567 251.042 75.0315 250.123 75.9478C249.205 76.8642 248.265 77.7806 247.305 78.697C246.387 79.5717 245.447 80.4465 244.487 81.3212C243.568 82.1543 242.733 82.904 241.982 83.5705L238.976 80.5089Z" fill="#DE4343"/>
<path d="M284.692 101.19C284.066 101.19 283.272 100.961 282.312 100.503C281.352 100.086 280.433 99.5447 279.557 98.8783C278.68 98.2535 277.928 97.5454 277.302 96.7539C276.676 95.9625 276.363 95.1919 276.363 94.4421C276.78 92.6094 277.344 90.5059 278.054 88.1316C278.763 85.7573 279.536 83.3414 280.371 80.8838C281.164 78.4262 282.02 76.0312 282.938 73.6985C283.815 71.3243 284.608 69.2208 285.318 67.388C286.07 65.5552 286.717 64.0765 287.26 62.9518C287.802 61.8272 288.157 61.2649 288.324 61.2649C288.575 61.2649 289.201 61.5356 290.203 62.0771C291.205 62.6186 292.249 63.2851 293.334 64.0765C294.461 64.8263 295.463 65.6385 296.34 66.5133C297.217 67.3463 297.655 68.0753 297.655 68.7001C297.655 68.825 297.634 68.9917 297.593 69.1999C297.551 69.3665 297.488 69.5956 297.405 69.8872C297.071 70.9286 296.632 72.1573 296.09 73.5736C295.589 74.9898 295.046 76.4685 294.461 78.0097C293.877 79.5092 293.292 81.0296 292.708 82.5708C292.123 84.0703 291.602 85.4866 291.142 86.8195C290.683 88.1524 290.307 89.3187 290.015 90.3184C289.723 91.3181 289.577 92.0471 289.577 92.5052C289.577 92.7552 289.702 92.8801 289.952 92.8801C290.412 92.8801 291.101 92.6094 292.019 92.0679C292.938 91.5264 293.981 90.8183 295.15 89.9435C296.361 89.0688 297.614 88.1108 298.908 87.0694C300.202 86.0281 301.434 85.0076 302.603 84.0079C303.813 82.9665 304.899 82.0293 305.859 81.1962C306.819 80.3632 307.55 79.7383 308.051 79.3218C308.427 79.6967 308.865 80.1757 309.366 80.7589C309.909 81.342 310.41 81.8835 310.869 82.3834C309.951 83.2997 308.802 84.4244 307.425 85.7573C306.047 87.0486 304.544 88.3815 302.916 89.7561C301.329 91.1307 299.659 92.5052 297.906 93.8798C296.194 95.2544 294.524 96.4832 292.896 97.5662C291.268 98.6492 289.744 99.5239 288.324 100.19C286.905 100.857 285.694 101.19 284.692 101.19ZM309.491 42.2082C309.45 42.3749 309.283 42.7914 308.99 43.4579C308.74 44.0827 308.427 44.8324 308.051 45.7072C307.675 46.5402 307.237 47.4358 306.736 48.3938C306.277 49.3102 305.817 50.1641 305.358 50.9555C304.899 51.747 304.46 52.4134 304.043 52.9549C303.625 53.4548 303.291 53.7047 303.041 53.7047C302.29 53.663 301.371 53.4339 300.286 53.0174C299.242 52.6009 298.219 52.1427 297.217 51.6428C296.257 51.1013 295.422 50.5807 294.712 50.0808C294.044 49.581 293.71 49.2269 293.71 49.0186C293.71 48.1439 293.96 47.0193 294.461 45.6447C294.962 44.2284 295.547 42.8747 296.215 41.5834C296.883 40.2505 297.551 39.105 298.219 38.147C298.929 37.1889 299.471 36.7099 299.847 36.7099C300.599 36.7099 301.517 36.9599 302.603 37.4597C303.688 37.9179 304.732 38.4594 305.734 39.0842C306.778 39.709 307.654 40.3338 308.364 40.9586C309.116 41.5418 309.491 41.9583 309.491 42.2082Z" fill="#DE4343"/>
<path d="M344.874 90.8183C344.874 91.8596 345.208 92.3803 345.876 92.3803C346.67 92.3803 347.609 92.1304 348.694 91.6305C349.822 91.1307 350.991 90.485 352.201 89.6936C353.412 88.8605 354.644 87.9442 355.896 86.9445C357.149 85.9448 358.318 84.9659 359.403 84.0079C360.53 83.0498 361.532 82.1543 362.409 81.3212C363.286 80.4881 363.975 79.8217 364.476 79.3218C364.893 79.6967 365.394 80.1757 365.979 80.7589C366.563 81.342 367.085 81.8835 367.544 82.3834C366.459 83.4664 365.227 84.6743 363.85 86.0072C362.472 87.3402 360.99 88.7147 359.403 90.131C357.858 91.5056 356.23 92.8593 354.519 94.1922C352.849 95.4835 351.179 96.6498 349.509 97.6911C347.839 98.6908 346.21 99.5031 344.624 100.128C343.037 100.753 341.534 101.065 340.115 101.065C339.363 101.065 338.445 100.711 337.359 100.003C336.274 99.3365 335.23 98.5034 334.228 97.5037C333.226 96.504 332.37 95.4627 331.66 94.3797C330.992 93.255 330.658 92.2553 330.658 91.3806C330.658 89.4645 330.784 87.4651 331.034 85.3824C329.156 87.0486 327.339 88.6314 325.586 90.131C323.832 91.6305 322.058 93.0467 320.263 94.3797C318.509 95.6709 316.693 96.8581 314.814 97.9411C312.977 99.0657 311.015 100.024 308.928 100.815C308.301 101.065 307.759 101.19 307.299 101.19C306.882 101.19 306.339 100.982 305.671 100.565C305.003 100.149 304.356 99.6072 303.73 98.9408C303.104 98.316 302.561 97.6078 302.102 96.8164C301.642 95.9833 301.413 95.1919 301.413 94.4421C301.413 92.7343 301.747 90.8391 302.415 88.7564C303.041 86.6321 303.98 84.4661 305.233 82.2584C306.444 80.0091 307.947 77.7806 309.742 75.573C311.495 73.3237 313.499 71.2201 315.754 69.2624C318.008 67.263 320.492 65.4719 323.206 63.8891C325.92 62.2646 328.822 60.9733 331.911 60.0153C332.495 60.0986 333.247 60.3693 334.165 60.8275C335.084 61.244 335.94 61.6814 336.733 62.1396C338.236 57.8493 339.948 53.5589 341.868 49.2686C343.831 44.9366 345.897 40.792 348.068 36.8349C350.281 32.8361 352.577 29.1081 354.957 25.6508C357.337 22.1519 359.716 19.0695 362.096 16.4037C364.476 13.6962 366.814 11.5094 369.11 9.8432C371.448 8.17705 373.661 7.15653 375.748 6.78165C376.667 6.78165 377.627 7.09405 378.629 7.71886C379.673 8.30201 380.654 9.03095 381.572 9.90568C382.491 10.7388 383.263 11.6135 383.89 12.5299C384.558 13.4463 384.975 14.2169 385.142 14.8417C385.142 16.7577 384.662 18.9862 383.702 21.5271C382.741 24.068 381.405 26.8171 379.694 29.7746C378.024 32.6903 376.02 35.7519 373.682 38.9592C371.385 42.1666 368.901 45.4364 366.229 48.7687C363.557 52.0594 360.739 55.35 357.775 58.6407C354.853 61.9313 351.909 65.1178 348.945 68.2002C347.692 72.4489 346.69 76.5102 345.939 80.384C345.229 84.2161 344.874 87.6942 344.874 90.8183ZM376.312 14.3418C375.602 14.3418 374.725 14.8625 373.682 15.9038C372.68 16.9452 371.532 18.4031 370.237 20.2775C368.985 22.1103 367.649 24.2971 366.229 26.838C364.81 29.3789 363.369 32.1488 361.908 35.1479C360.447 38.147 358.986 41.3335 357.524 44.7075C356.063 48.0814 354.686 51.497 353.391 54.9543C356.523 51.1222 359.487 47.29 362.284 43.4579C365.123 39.584 367.607 35.9185 369.736 32.4612C371.866 29.004 373.556 25.8383 374.809 22.9642C376.061 20.09 376.688 17.7158 376.688 15.8414C376.688 15.5914 376.667 15.279 376.625 14.9041C376.625 14.5293 376.521 14.3418 376.312 14.3418ZM316.881 88.6939C318.259 88.6939 320.305 87.7359 323.018 85.8198C325.732 83.8621 328.801 81.2587 332.224 78.0097C332.6 76.0936 333.059 74.1567 333.602 72.199C334.145 70.1996 334.75 68.1794 335.418 66.1384C332.996 67.7629 330.617 69.6165 328.279 71.6992C325.983 73.7818 323.937 75.8437 322.142 77.8847C320.346 79.9258 318.885 81.8419 317.758 83.633C316.672 85.3824 316.13 86.7154 316.13 87.6317C316.13 88.3399 316.38 88.6939 316.881 88.6939Z" fill="#DE4343"/>
<path d="M408 82.3834C404.159 86.1322 400.527 89.2771 397.103 91.818C393.722 94.3588 390.486 96.3999 387.396 97.9411C384.307 99.4823 381.343 100.586 378.504 101.253C375.707 101.919 372.972 102.252 370.3 102.252C369.173 102.252 367.92 101.836 366.542 101.003C365.165 100.17 363.891 99.149 362.722 97.9411C361.512 96.7748 360.51 95.546 359.716 94.2547C358.923 92.9634 358.526 91.8596 358.526 90.9432C358.526 87.5276 359.007 84.4036 359.967 81.5711C360.885 78.697 362.117 76.1145 363.662 73.8235C365.206 71.5325 366.96 69.5123 368.922 67.7629C370.926 66.0134 372.993 64.5555 375.122 63.3892C377.293 62.2229 379.443 61.3482 381.572 60.765C383.702 60.1819 385.664 59.8903 387.459 59.8903C388.753 59.8903 390.027 60.2652 391.279 61.0149C392.573 61.7647 393.742 62.6811 394.786 63.7641C395.83 64.8471 396.665 65.9926 397.291 67.2005C397.959 68.3668 398.293 69.3874 398.293 70.2621C398.293 71.6783 397.688 73.1362 396.477 74.6357C395.308 76.0936 393.638 77.5932 391.467 79.1344C389.296 80.6756 386.687 82.2584 383.639 83.8829C380.591 85.4657 377.23 87.0694 373.556 88.6939C373.431 89.6936 373.369 90.6725 373.369 91.6305C373.369 92.9218 373.64 93.7965 374.183 94.2547C374.767 94.7129 375.832 94.942 377.377 94.942C380.132 94.942 382.721 94.4838 385.142 93.5674C387.605 92.651 389.964 91.4639 392.219 90.006C394.473 88.5481 396.644 86.882 398.732 85.0076C400.819 83.1331 402.886 81.2379 404.931 79.3218L408 82.3834ZM385.956 66.7632C385.121 66.7632 384.203 67.2214 383.201 68.1378C382.199 69.0125 381.197 70.1788 380.195 71.6367C379.193 73.0946 378.232 74.7815 377.314 76.6976C376.395 78.572 375.602 80.5298 374.934 82.5708C376.479 81.5711 377.982 80.5089 379.443 79.3843C380.946 78.2596 382.282 77.0933 383.451 75.8854C384.62 74.6357 385.559 73.3653 386.269 72.074C386.979 70.7828 387.334 69.4915 387.334 68.2002C387.334 67.8253 387.209 67.4921 386.958 67.2005C386.749 66.909 386.415 66.7632 385.956 66.7632Z" fill="#DE4343"/>
<path d="M194.943 36.0545C195.43 35.318 195.768 34.7462 195.959 34.339C196.159 33.9318 196.259 33.5506 196.259 33.1953C196.259 32.7968 196.146 32.4806 195.92 32.2466C195.694 32.0127 195.382 31.8957 194.982 31.8957C194.227 31.8957 193.489 32.2553 192.768 32.9744L192.586 31.4409C193.376 30.8084 194.262 30.4922 195.243 30.4922C195.773 30.4922 196.224 30.6048 196.598 30.8301C196.98 31.0467 197.266 31.3412 197.457 31.7138C197.648 32.0864 197.744 32.5022 197.744 32.9614C197.744 33.4899 197.631 34.0184 197.405 34.5469C197.188 35.0668 196.806 35.7426 196.259 36.5743L195.073 38.3678H198.069V39.7713H192.52L194.943 36.0545Z" fill="#292929"/>
<path d="M203.727 39.9533C202.954 39.9533 202.277 39.754 201.695 39.3554C201.122 38.9482 200.675 38.3807 200.353 37.653C200.041 36.9252 199.885 36.0891 199.885 35.1447C199.885 34.235 200.045 33.4293 200.366 32.7275C200.688 32.017 201.139 31.4669 201.721 31.077C202.303 30.6871 202.972 30.4922 203.727 30.4922C204.491 30.4922 205.164 30.6871 205.746 31.077C206.328 31.4669 206.775 32.0127 207.088 32.7145C207.409 33.4163 207.57 34.2264 207.57 35.1447C207.57 36.0891 207.409 36.9252 207.088 37.653C206.775 38.3807 206.328 38.9482 205.746 39.3554C205.173 39.754 204.5 39.9533 203.727 39.9533ZM203.727 38.6017C204.439 38.6017 204.999 38.3114 205.408 37.7309C205.816 37.1505 206.02 36.2884 206.02 35.1447C206.02 34.0617 205.811 33.2387 205.394 32.6755C204.978 32.1123 204.422 31.8308 203.727 31.8308C203.032 31.8308 202.472 32.1123 202.047 32.6755C201.63 33.2387 201.422 34.0617 201.422 35.1447C201.422 36.2797 201.626 37.1418 202.034 37.7309C202.451 38.3114 203.015 38.6017 203.727 38.6017Z" fill="#292929"/>
<path d="M211.753 36.0545C212.239 35.318 212.578 34.7462 212.769 34.339C212.969 33.9318 213.068 33.5506 213.068 33.1953C213.068 32.7968 212.956 32.4806 212.73 32.2466C212.504 32.0127 212.191 31.8957 211.792 31.8957C211.036 31.8957 210.298 32.2553 209.577 32.9744L209.395 31.4409C210.185 30.8084 211.071 30.4922 212.052 30.4922C212.582 30.4922 213.034 30.6048 213.407 30.8301C213.789 31.0467 214.076 31.3412 214.267 31.7138C214.458 32.0864 214.553 32.5022 214.553 32.9614C214.553 33.4899 214.44 34.0184 214.215 34.5469C213.998 35.0668 213.615 35.7426 213.068 36.5743L211.883 38.3678H214.879V39.7713H209.33L211.753 36.0545Z" fill="#292929"/>
<path d="M217.879 32.8185C217.471 33.113 217.063 33.308 216.655 33.4033L216.486 32.0907C216.798 32.0127 217.133 31.8351 217.489 31.5578C217.853 31.2719 218.11 30.9774 218.257 30.6741H219.377V39.7713H217.879V32.8185Z" fill="#292929"/>
<path d="M154.925 37.6684C154.389 38.2624 153.751 38.8192 153.011 39.3387C152.272 39.8583 151.634 40.2264 151.096 40.4429L149.453 38.5884C151.231 37.8547 152.59 36.968 153.529 35.9285C154.057 35.3444 154.359 34.7908 154.436 34.2677C154.513 33.7446 154.333 33.2868 153.897 32.8941C153.559 32.5907 153.206 32.4343 152.837 32.4251C152.476 32.406 152.069 32.4978 151.616 32.7006C151.153 32.8944 150.513 33.2248 149.696 33.6918C148.906 34.1479 148.199 34.4817 147.577 34.6933C146.944 34.8959 146.323 34.9563 145.713 34.8746C145.102 34.774 144.509 34.4649 143.934 33.9473C143.061 33.1619 142.647 32.2065 142.692 31.0811C142.747 29.9457 143.32 28.7741 144.411 27.5662C144.948 26.9722 145.54 26.4461 146.188 25.9879C146.836 25.5297 147.46 25.1671 148.061 24.9L149.686 26.6847C148.862 27.0199 148.147 27.3824 147.543 27.7723C146.948 28.1523 146.414 28.6046 145.94 29.1294C145.403 29.7234 145.091 30.2775 145.004 30.7916C144.908 31.2968 145.068 31.7368 145.484 32.1117C145.782 32.3794 146.102 32.5233 146.443 32.5434C146.784 32.5447 147.148 32.4598 147.537 32.2887C147.934 32.1077 148.473 31.8203 149.152 31.4265C150.593 30.5687 151.812 30.0856 152.809 29.9774C153.805 29.8504 154.73 30.1707 155.583 30.9382C156.426 31.6968 156.859 32.6418 156.88 33.7733C156.901 34.9047 156.249 36.2031 154.925 37.6684Z" fill="#292929"/>
<path d="M154.922 20.8605L151.787 23.3516L150.414 21.6312L158.503 15.2041L159.876 16.9245L156.741 19.4156L164.107 28.6433L162.288 30.0881L154.922 20.8605Z" fill="#292929"/>
<path d="M161.96 12.8822L166.27 10.4946C167.59 9.76349 168.795 9.49969 169.887 9.70322C170.978 9.90676 171.867 10.6262 172.555 11.8614C173.028 12.7121 173.236 13.5116 173.179 14.2599C173.122 15.0082 172.845 15.7332 172.349 16.4347L177.95 20.0327L175.62 21.3235L170.642 18.0209L168.259 19.3408L170.837 23.9731L168.769 25.1183L161.96 12.8822ZM169.153 16.5815C170.006 16.1092 170.53 15.5824 170.726 15.0011C170.927 14.4018 170.847 13.7758 170.483 13.1232C169.718 11.7481 168.524 11.5102 166.9 12.4096L164.99 13.4675L167.296 17.6103L169.153 16.5815Z" fill="#292929"/>
<path d="M174.65 6.33687L182.961 3.39876L183.698 5.4718L177.615 7.62196L178.753 10.8257L183.532 9.13633L184.268 11.2094L179.489 12.8988L180.828 16.6679L187.099 14.451L187.835 16.524L179.335 19.5289L174.65 6.33687Z" fill="#292929"/>
<path d="M187.146 2.29054L195.816 0.683869L196.218 2.8462L189.874 4.02199L190.496 7.36378L195.481 6.43994L195.884 8.60228L190.899 9.52611L191.631 13.4576L198.172 12.2453L198.575 14.4077L189.708 16.0508L187.146 2.29054Z" fill="#292929"/>
<path d="M202.924 2.37121L198.918 2.48052L198.857 0.282023L209.194 0L209.254 2.1985L205.248 2.30781L205.571 14.0998L203.247 14.1632L202.924 2.37121Z" fill="#292929"/>
<path d="M218.919 0.429412L221.26 1.05994L221.279 11.9584L227.116 2.7406L228.915 3.22523L229.428 13.9874L234.842 4.71807L237.183 5.3486L229.599 17.8027L227.49 17.2347L226.998 6.70576L221.28 15.562L219.074 14.968L218.919 0.429412Z" fill="#292929"/>
<path d="M240.784 7.29375L248.623 11.3219L247.614 13.2771L241.877 10.3292L240.317 13.351L244.825 15.6671L243.815 17.6223L239.308 15.3062L237.473 18.8611L243.388 21.9005L242.378 23.8558L234.361 19.7361L240.784 7.29375Z" fill="#292929"/>
<path d="M251.87 26.3804L247.706 23.2556L244.634 25.3027L242.776 23.9086L255.212 15.7283L257.038 17.0984L252.593 31.2759L250.751 29.8938L251.87 26.3804ZM252.519 24.29L254.234 18.922L249.524 22.0425L252.519 24.29Z" fill="#292929"/>
<path d="M264.554 23.3597L267.897 26.9751C268.92 28.0823 269.462 29.1889 269.521 30.2949C269.58 31.401 269.089 32.4329 268.048 33.3909C267.331 34.0506 266.602 34.4409 265.859 34.5619C265.117 34.6829 264.346 34.5858 263.545 34.2705L261.362 40.5497L259.555 38.595L261.597 32.9893L259.75 30.9905L255.846 34.5827L254.243 32.8485L264.554 23.3597ZM262.648 31.2064C263.309 31.9217 263.946 32.3058 264.559 32.3588C265.19 32.4125 265.781 32.1864 266.33 31.6803C267.489 30.6139 267.439 29.3998 266.18 28.0379L264.699 26.4359L261.208 29.6485L262.648 31.2064Z" fill="#292929"/>
<path d="M230.96 35.2727C230.96 36.1009 230.287 36.7722 229.457 36.7722C228.627 36.7722 227.954 36.1009 227.954 35.2727C227.954 34.4445 228.627 33.7732 229.457 33.7732C230.287 33.7732 230.96 34.4445 230.96 35.2727Z" fill="#292929"/>
<path d="M184.868 35.2727C184.868 36.1009 184.195 36.7722 183.365 36.7722C182.535 36.7722 181.862 36.1009 181.862 35.2727C181.862 34.4445 182.535 33.7732 183.365 33.7732C184.195 33.7732 184.868 34.4445 184.868 35.2727Z" fill="#292929"/>
</svg>
